# xmcd
#
# Track frame offsets:
#	150
#	9983
#	18002
#	21587
#	41569
#	49648
#	55804
#	66032
#	74854
#	79608
#	96726
#	114641
#	120886
#	127082
#	138294
#	155457
#
# Disc length: 2248 seconds
#
# Revision: 1
# Processed by: cddbd v1.5.2PL0 Copyright (c) Steve Scherf et al.
# Submitted via: audiograbber 1.83.01
#
DISCID=d808c610
DTITLE=Die Strafe - Krunk
DYEAR=2015
DGENRE=Punk Rock
TTITLE0=13%
TTITLE1=Schnell vorbei
TTITLE2=Entschuldigen Sie
TTITLE3=N.O.T.
TTITLE4=Vegetation Grock
TTITLE5=Es ist schön
TTITLE6=Fensterbank
TTITLE7=Meine
TTITLE8=Karacho
TTITLE9=Stück für Stück
TTITLE10=Himmel hilft nicht
TTITLE11=Krunk
TTITLE12=Wir werden alle sterben
TTITLE13=Schmeiß doch
TTITLE14=Sterne
TTITLE15=Loreley
EXTD=
EXTT0=
EXTT1=
EXTT2=
EXTT3=
EXTT4=
EXTT5=
EXTT6=
EXTT7=
EXTT8=
EXTT9=
EXTT10=
EXTT11=
EXTT12=
EXTT13=
EXTT14=
EXTT15=
PLAYORDER=
